<svg width="40" height="40" viewBox="0 0 40 40" fill="none" xmlns="http://www.w3.org/2000/svg">
  <rect width="40" height="40" rx="12" fill="#23272F"/>
  <path d="M36 20c0-8.837-7.163-16-16-16S4 11.163 4 20c0 7.073 4.584 13.065 10.938 15.18.8.147 1.093-.347 1.093-.77 0-.38-.014-1.387-.022-2.722-4.451.967-5.39-2.146-5.39-2.146-.728-1.85-1.777-2.343-1.777-2.343-1.453-.994.11-.974.11-.974 1.607.113 2.454 1.652 2.454 1.652 1.428 2.448 3.748 1.741 4.663 1.332.145-1.034.56-1.742 1.018-2.144-3.553-.404-7.288-1.777-7.288-7.914 0-1.747.623-3.176 1.646-4.294-.165-.404-.714-2.034.157-4.242 0 0 1.343-.43 4.4 1.64A15.32 15.32 0 0120 12.844c1.36.006 2.728.184 4.008.54 3.055-2.07 4.396-1.64 4.396-1.64.873 2.208.324 3.838.16 4.242 1.025 1.118 1.645 2.547 1.645 4.294 0 6.15-3.74 7.507-7.305 7.904.574.494 1.085 1.47 1.085 2.963 0 2.14-.02 3.866-.02 4.39 0 .426.29.922 1.1.766C31.42 33.06 36 27.07 36 20z" fill="#fff"/>
</svg>
