<svg width="32" height="32" viewBox="0 0 32 32" fill="none" xmlns="http://www.w3.org/2000/svg">
  <rect width="32" height="32" rx="8" fill="#131316"/>
  <path d="M16 6C10.477 6 6 10.477 6 16C6 20.418 9.065 24.063 13.065 25.25C13.565 25.34 13.75 25.045 13.75 24.785C13.75 24.555 13.74 23.965 13.735 23.135C10.73 23.785 10.14 21.715 10.14 21.715C9.685 20.555 9.035 20.25 9.035 20.25C8.085 19.635 9.11 19.65 9.11 19.65C10.165 19.73 10.705 20.74 10.705 20.74C11.645 22.355 13.185 21.91 13.77 21.67C13.86 21.03 14.115 20.585 14.4 20.335C11.98 20.085 9.44 19.19 9.44 15.635C9.44 14.635 9.805 13.83 10.38 13.205C10.285 12.955 9.965 12.045 10.47 10.835C10.47 10.835 11.225 10.57 13.73 12.09C14.445 11.89 15.215 11.79 15.985 11.785C16.755 11.79 17.525 11.89 18.24 12.09C20.745 10.57 21.5 10.835 21.5 10.835C22.005 12.045 21.685 12.955 21.59 13.205C22.165 13.83 22.53 14.635 22.53 15.635C22.53 19.205 19.985 20.08 17.56 20.33C17.94 20.645 18.28 21.275 18.28 22.205C18.28 23.525 18.265 24.485 18.265 24.785C18.265 25.045 18.445 25.345 18.955 25.25C22.955 24.06 26 20.415 26 16C26 10.477 21.523 6 16 6Z" fill="white"/>
</svg>
